<?xml version="1.0" encoding="UTF-8"?>
<!--Generator: Apple Native CoreSVG 175.5-->
<!DOCTYPE svg
PUBLIC "-//W3C//DTD SVG 1.1//EN"
       "http://www.w3.org/Graphics/SVG/1.1/DTD/svg11.dtd">
<svg version="1.1" xmlns="http://www.w3.org/2000/svg" xmlns:xlink="http://www.w3.org/1999/xlink" width="49.8047" height="49.8291">
 <g>
  <rect height="49.8291" opacity="0" width="49.8047" x="0" y="0"/>
  <path d="M24.9023 49.8047C38.5254 49.8047 49.8047 38.501 49.8047 24.9023C49.8047 11.2793 38.501 0 24.8779 0C11.2793 0 0 11.2793 0 24.9023C0 38.501 11.3037 49.8047 24.9023 49.8047ZM24.9023 45.6543C13.3789 45.6543 4.1748 36.4258 4.1748 24.9023C4.1748 13.3789 13.3545 4.15039 24.8779 4.15039C36.4014 4.15039 45.6543 13.3789 45.6543 24.9023C45.6543 36.4258 36.4258 45.6543 24.9023 45.6543Z" fill="#59adc4" fill-opacity="0.5"/>
  <path d="M18.2373 26.5625C17.5537 26.5625 17.041 26.0742 17.041 25.3906C17.041 24.707 17.5537 24.2188 18.2373 24.2188L23.7061 24.2188L23.7061 16.7725C23.7061 16.1133 24.2188 15.6006 24.8779 15.6006C25.5615 15.6006 26.0986 16.1133 26.0986 16.7725L26.0986 25.3906C26.0986 26.0498 25.5371 26.5625 24.8779 26.5625ZM24.9023 38.0127C32.0557 38.0127 38.0127 32.0557 38.0127 24.9023C38.0127 17.749 32.0557 11.792 24.8779 11.792C17.7246 11.792 11.792 17.749 11.792 24.9023C11.792 32.0557 17.749 38.0127 24.9023 38.0127Z" fill="#59adc4"/>
 </g>
</svg>
