<?xml version="1.0" encoding="UTF-8"?>
<!--
  - Copyright (C) 2023 Matis Byar. - All Rights Reserved
  -
  - Unauthorized copying or redistribution of this file, in source or binary forms, via any medium,
  - is strictly prohibited.
  -
  - For inquiries or licensing options, please contact:
  - matis@byar.fr
  -->

<!--Generator: Apple Native CoreSVG 175.5-->
<!DOCTYPE svg
PUBLIC "-//W3C//DTD SVG 1.1//EN"
       "http://www.w3.org/Graphics/SVG/1.1/DTD/svg11.dtd">
<svg version="1.1" xmlns="http://www.w3.org/2000/svg" xmlns:xlink="http://www.w3.org/1999/xlink" width="72.8516" height="47.7295">
 <g>
  <rect height="47.7295" opacity="0" width="72.8516" x="0" y="0"/>
  <path d="M9.25293 17.9932C8.56934 17.9932 8.1543 17.5537 8.1543 16.8701L8.1543 14.5508C8.1543 13.8672 8.56934 13.4277 9.25293 13.4277L11.5723 13.4277C12.2803 13.4277 12.7197 13.8672 12.7197 14.5508L12.7197 16.8701C12.7197 17.5537 12.2803 17.9932 11.5723 17.9932ZM17.3584 17.9932C16.6504 17.9932 16.2354 17.5537 16.2354 16.8701L16.2354 14.5508C16.2354 13.8672 16.6504 13.4277 17.3584 13.4277L19.6777 13.4277C20.3613 13.4277 20.8008 13.8672 20.8008 14.5508L20.8008 16.8701C20.8008 17.5537 20.3613 17.9932 19.6777 17.9932ZM25.4639 17.9932C24.7803 17.9932 24.3408 17.5537 24.3408 16.8701L24.3408 14.5508C24.3408 13.8672 24.7803 13.4277 25.4639 13.4277L27.7588 13.4277C28.4668 13.4277 28.9062 13.8672 28.9062 14.5508L28.9062 16.8701C28.9062 17.5537 28.4668 17.9932 27.7588 17.9932ZM33.5693 17.9932C32.8857 17.9932 32.4463 17.5537 32.4463 16.8701L32.4463 14.5508C32.4463 13.8672 32.8857 13.4277 33.5693 13.4277L35.8887 13.4277C36.5723 13.4277 37.0117 13.8672 37.0117 14.5508L37.0117 16.8701C37.0117 17.5537 36.5723 17.9932 35.8887 17.9932ZM41.6748 17.9932C40.9668 17.9932 40.5273 17.5537 40.5273 16.8701L40.5273 14.5508C40.5273 13.8672 40.9668 13.4277 41.6748 13.4277L43.9941 13.4277C44.6777 13.4277 45.0928 13.8672 45.0928 14.5508L45.0928 16.8701C45.0928 17.5537 44.6777 17.9932 43.9941 17.9932ZM49.7803 17.9932C49.0723 17.9932 48.6328 17.5537 48.6328 16.8701L48.6328 14.5508C48.6328 13.8672 49.0723 13.4277 49.7803 13.4277L52.0752 13.4277C52.7832 13.4277 53.1982 13.8672 53.1982 14.5508L53.1982 16.8701C53.1982 17.5537 52.7832 17.9932 52.0752 17.9932ZM9.25293 26.0986C8.56934 26.0986 8.1543 25.6592 8.1543 24.9756L8.1543 22.6562C8.1543 21.9727 8.56934 21.5332 9.25293 21.5332L11.5723 21.5332C12.2803 21.5332 12.7197 21.9727 12.7197 22.6562L12.7197 24.9756C12.7197 25.6592 12.2803 26.0986 11.5723 26.0986ZM17.3584 26.0986C16.6504 26.0986 16.2354 25.6592 16.2354 24.9756L16.2354 22.6562C16.2354 21.9727 16.6504 21.5332 17.3584 21.5332L19.6777 21.5332C20.3613 21.5332 20.8008 21.9727 20.8008 22.6562L20.8008 24.9756C20.8008 25.6592 20.3613 26.0986 19.6777 26.0986ZM25.4639 26.0986C24.7803 26.0986 24.3408 25.6592 24.3408 24.9756L24.3408 22.6562C24.3408 21.9727 24.7803 21.5332 25.4639 21.5332L27.7588 21.5332C28.4668 21.5332 28.9062 21.9727 28.9062 22.6562L28.9062 24.9756C28.9062 25.6592 28.4668 26.0986 27.7588 26.0986ZM33.5693 26.0986C32.8857 26.0986 32.4463 25.6592 32.4463 24.9756L32.4463 22.6562C32.4463 21.9727 32.8857 21.5332 33.5693 21.5332L35.8887 21.5332C36.5723 21.5332 37.0117 21.9727 37.0117 22.6562L37.0117 24.9756C37.0117 25.6592 36.5723 26.0986 35.8887 26.0986ZM41.6748 26.0986C40.9668 26.0986 40.5273 25.6592 40.5273 24.9756L40.5273 22.6562C40.5273 21.9727 40.9668 21.5332 41.6748 21.5332L43.9941 21.5332C44.6777 21.5332 45.0928 21.9727 45.0928 22.6562L45.0928 24.9756C45.0928 25.6592 44.6777 26.0986 43.9941 26.0986ZM9.25293 34.2041C8.56934 34.2041 8.1543 33.7646 8.1543 33.0811L8.1543 30.7617C8.1543 30.0781 8.56934 29.6387 9.25293 29.6387L11.5723 29.6387C12.2803 29.6387 12.7197 30.0781 12.7197 30.7617L12.7197 33.0811C12.7197 33.7646 12.2803 34.2041 11.5723 34.2041ZM7.66602 43.1396L46.7773 43.1396C45.459 40.8203 44.7021 38.1348 44.7021 35.3271C44.7021 34.9365 44.7021 34.5703 44.751 34.2041L17.627 34.2041C16.748 34.2041 16.2354 33.6914 16.2354 32.8125L16.2354 31.0059C16.2354 30.1514 16.748 29.6387 17.627 29.6387L45.7764 29.6387C48.0713 23.7793 53.8086 19.5801 60.4248 19.5801C60.791 19.5801 61.1084 19.6045 61.4502 19.6777L61.4502 12.1094C61.4502 7.10449 58.8623 4.56543 53.7842 4.56543L7.66602 4.56543C2.53906 4.56543 0 7.08008 0 12.1094L0 35.5713C0 40.6006 2.53906 43.1396 7.66602 43.1396ZM60.4492 47.7295C67.1631 47.7295 72.8516 42.0898 72.8516 35.3271C72.8516 28.5156 67.2607 22.9004 60.4492 22.9004C53.6621 22.9004 48.0469 28.5156 48.0469 35.3271C48.0469 42.1387 53.6621 47.7295 60.4492 47.7295ZM53.6621 37.2314C52.6123 37.2314 51.7578 36.3525 51.7578 35.3027C51.7578 34.2773 52.6123 33.3984 53.6621 33.3984C54.7119 33.3984 55.5664 34.2773 55.5664 35.3027C55.5664 36.3525 54.7119 37.2314 53.6621 37.2314ZM60.4736 37.2314C59.4238 37.2314 58.5449 36.3525 58.5449 35.3027C58.5449 34.2773 59.4238 33.3984 60.4736 33.3984C61.499 33.3984 62.3779 34.2773 62.3779 35.3027C62.3779 36.3525 61.499 37.2314 60.4736 37.2314ZM67.2363 37.2314C66.1865 37.2314 65.332 36.3525 65.332 35.3027C65.332 34.2773 66.1865 33.3984 67.2363 33.3984C68.2861 33.3984 69.1406 34.2773 69.1406 35.3027C69.1162 36.3525 68.2617 37.2314 67.2363 37.2314Z" fill="#59adc4"/>
 </g>
</svg>
