<?xml version="1.0" encoding="UTF-8"?>
<!--Generator: Apple Native CoreSVG 175.5-->
<!DOCTYPE svg
PUBLIC "-//W3C//DTD SVG 1.1//EN"
       "http://www.w3.org/Graphics/SVG/1.1/DTD/svg11.dtd">
<svg version="1.1" xmlns="http://www.w3.org/2000/svg" xmlns:xlink="http://www.w3.org/1999/xlink" width="49.8047" height="51.0986">
 <g>
  <rect height="51.0986" opacity="0" width="49.8047" x="0" y="0"/>
  <path d="M24.9023 51.0986C38.5254 51.0986 49.8047 39.7949 49.8047 26.1963C49.8047 12.5732 38.501 1.29395 24.8779 1.29395C11.2793 1.29395 0 12.5732 0 26.1963C0 39.7949 11.3037 51.0986 24.9023 51.0986Z" fill="#59adc4" fill-opacity="0.18"/>
  <path d="M25.4639 42.041C24.1699 42.041 23.7793 41.0156 23.3398 39.5996L21.0693 32.2021C20.8252 31.2256 20.874 30.7617 21.4355 30.2002L35.7666 14.7461C35.9375 14.5508 35.9375 14.3311 35.7666 14.1846C35.6201 14.0869 35.4248 14.0381 35.2295 14.209L19.8486 28.6377C19.2383 29.1748 18.75 29.1748 17.8467 28.9062L10.2295 26.6113C8.8623 26.1963 7.91016 25.7568 7.91016 24.4873C7.91016 23.4619 8.81348 22.7295 9.98535 22.3145L34.1797 13.0371C34.8389 12.793 35.376 12.6465 35.8643 12.6465C36.7676 12.6465 37.3047 13.208 37.3047 14.1113C37.3047 14.5996 37.1826 15.1367 36.9385 15.7959L27.7344 39.8682C27.2217 41.2109 26.4893 42.041 25.4639 42.041Z" fill="#59adc4"/>
 </g>
</svg>
