<?xml version="1.0" encoding="UTF-8"?>
<!--Generator: Apple Native CoreSVG 175.5-->
<!DOCTYPE svg
PUBLIC "-//W3C//DTD SVG 1.1//EN"
       "http://www.w3.org/Graphics/SVG/1.1/DTD/svg11.dtd">
<svg version="1.1" xmlns="http://www.w3.org/2000/svg" xmlns:xlink="http://www.w3.org/1999/xlink" width="50.3313" height="52.9651">
 <g>
  <rect height="52.9651" opacity="0" width="50.3313" x="0" y="0"/>
  <path d="M9.44878 42.3883C16.2115 49.151 25.0005 51.1774 29.3218 51.5924C30.5914 51.7389 31.2994 50.9577 31.397 50.152C31.4947 49.2975 30.9576 48.3698 29.7369 48.1989C25.8306 47.6618 17.774 45.9039 11.8902 39.9713C2.31987 30.3766 0.513234 15.8746 8.32573 8.06215C14.6734 1.7389 25.2447 2.54457 33.0328 6.74379L35.5718 4.27797C26.0992-1.41051 13.355-1.87438 5.88433 5.62074C-3.00239 14.5319-1.83052 31.109 9.44878 42.3883ZM18.3355 35.0885C26.3189 43.0719 39.1607 46.2213 46.3384 39.068C52.1978 33.1842 51.441 22.735 45.1666 13.7506L42.6763 16.2409C47.6568 23.6139 48.6334 31.8903 43.897 36.6266C38.1353 42.3883 28.6138 39.6539 22.0709 33.4772Z" fill="#59adc4" fill-opacity="0.5"/>
  <path d="M21.5337 31.4508L43.4576 9.5514L39.8199 5.93812L17.9205 27.8131L15.9185 32.4762C15.6988 32.9889 16.2115 33.526 16.7486 33.3307ZM45.2398 7.79359L47.1929 5.84047C48.1207 4.91273 48.1695 3.54554 47.2173 2.66664L46.5826 2.0807C45.7525 1.29945 44.4341 1.29945 43.5552 2.17836L41.6265 4.1559Z" fill="#59adc4"/>
 </g>
</svg>
