<?xml version="1.0" encoding="UTF-8"?>
<!--Generator: Apple Native CoreSVG 175.5-->
<!DOCTYPE svg
PUBLIC "-//W3C//DTD SVG 1.1//EN"
       "http://www.w3.org/Graphics/SVG/1.1/DTD/svg11.dtd">
<svg version="1.1" xmlns="http://www.w3.org/2000/svg" xmlns:xlink="http://www.w3.org/1999/xlink" width="49.8047" height="49.8291">
 <g>
  <rect height="49.8291" opacity="0" width="49.8047" x="0" y="0"/>
  <path d="M24.9023 47.7295C27.0264 47.7295 29.0771 47.4365 31.0059 46.8262L31.0059 16.5527C31.0059 14.8926 30.0537 13.7939 28.4424 13.7939L12.0605 13.7939C10.4736 13.7939 9.49707 14.8926 9.49707 16.5527L9.49707 40.918C13.2812 45.1172 18.75 47.7295 24.9023 47.7295ZM15.2344 41.2109C14.8926 41.2109 14.6729 40.9668 14.6729 40.625L14.6729 38.0371C14.6729 37.6953 14.8926 37.4512 15.2344 37.4512L17.8955 37.4512C18.2129 37.4512 18.4814 37.6953 18.4814 38.0371L18.4814 40.625C18.4814 40.9668 18.2129 41.2109 17.8955 41.2109ZM22.5586 41.2109C22.2168 41.2109 21.9971 40.9668 21.9971 40.625L21.9971 38.0371C21.9971 37.6953 22.2168 37.4512 22.5586 37.4512L25.2197 37.4512C25.5615 37.4512 25.8057 37.6953 25.8057 38.0371L25.8057 40.625C25.8057 40.9668 25.5615 41.2109 25.2197 41.2109ZM15.2344 34.7656C14.8926 34.7656 14.6729 34.5215 14.6729 34.1797L14.6729 31.5918C14.6729 31.2744 14.8926 31.0059 15.2344 31.0059L17.8955 31.0059C18.2129 31.0059 18.4814 31.2744 18.4814 31.5918L18.4814 34.1797C18.4814 34.5215 18.2129 34.7656 17.8955 34.7656ZM22.5586 34.7656C22.2168 34.7656 21.9971 34.5215 21.9971 34.1797L21.9971 31.5918C21.9971 31.2744 22.2168 31.0059 22.5586 31.0059L25.2197 31.0059C25.5615 31.0059 25.8057 31.2744 25.8057 31.5918L25.8057 34.1797C25.8057 34.5215 25.5615 34.7656 25.2197 34.7656ZM15.2344 28.3203C14.8926 28.3203 14.6729 28.0762 14.6729 27.7344L14.6729 25.1709C14.6729 24.8291 14.8926 24.5605 15.2344 24.5605L17.8955 24.5605C18.2129 24.5605 18.4814 24.8291 18.4814 25.1709L18.4814 27.7344C18.4814 28.0762 18.2129 28.3203 17.8955 28.3203ZM22.5586 28.3203C22.2168 28.3203 21.9971 28.0762 21.9971 27.7344L21.9971 25.1709C21.9971 24.8291 22.2168 24.5605 22.5586 24.5605L25.2197 24.5605C25.5615 24.5605 25.8057 24.8291 25.8057 25.1709L25.8057 27.7344C25.8057 28.0762 25.5615 28.3203 25.2197 28.3203ZM15.2344 21.9482C14.8926 21.9482 14.6729 21.6797 14.6729 21.3623L14.6729 18.7744C14.6729 18.4082 14.8926 18.1885 15.2344 18.1885L17.8955 18.1885C18.2129 18.1885 18.4814 18.4082 18.4814 18.7744L18.4814 21.3623C18.4814 21.6797 18.2129 21.9482 17.8955 21.9482ZM22.5586 21.9482C22.2168 21.9482 21.9971 21.6797 21.9971 21.3623L21.9971 18.7744C21.9971 18.4082 22.2168 18.1885 22.5586 18.1885L25.2197 18.1885C25.5615 18.1885 25.8057 18.4082 25.8057 18.7744L25.8057 21.3623C25.8057 21.6797 25.5615 21.9482 25.2197 21.9482ZM32.9102 46.167C36.9385 44.4824 40.3076 41.5771 42.5537 37.8906L42.5537 22.7783C42.5537 21.0938 41.5771 20.0195 39.9902 20.0195L32.9102 20.0195ZM36.5723 38.3789C36.2793 38.3789 36.084 38.1836 36.084 37.9395L36.084 35.7178C36.084 35.4736 36.2793 35.2295 36.5723 35.2295L38.8672 35.2295C39.1113 35.2295 39.3066 35.4736 39.3066 35.7178L39.3066 37.9395C39.3066 38.1836 39.1113 38.3789 38.8672 38.3789ZM36.5723 32.8125C36.2793 32.8125 36.084 32.6172 36.084 32.3242L36.084 30.1514C36.084 29.8584 36.2793 29.6875 36.5723 29.6875L38.8672 29.6875C39.1113 29.6875 39.3066 29.8584 39.3066 30.1514L39.3066 32.3242C39.3066 32.6172 39.1113 32.8125 38.8672 32.8125ZM36.5723 27.2461C36.2793 27.2461 36.084 27.0508 36.084 26.7578L36.084 24.5605C36.084 24.292 36.2793 24.0967 36.5723 24.0967L38.8672 24.0967C39.1113 24.0967 39.3066 24.292 39.3066 24.5605L39.3066 26.7578C39.3066 27.0508 39.1113 27.2461 38.8672 27.2461ZM24.9023 49.8047C38.5254 49.8047 49.8047 38.501 49.8047 24.9023C49.8047 11.2793 38.501 0 24.8779 0C11.2793 0 0 11.2793 0 24.9023C0 38.501 11.3037 49.8047 24.9023 49.8047ZM24.9023 45.6543C13.3789 45.6543 4.1748 36.4258 4.1748 24.9023C4.1748 13.3789 13.3545 4.15039 24.8779 4.15039C36.4014 4.15039 45.6543 13.3789 45.6543 24.9023C45.6543 36.4258 36.4258 45.6543 24.9023 45.6543Z" fill="#59adc4"/>
 </g>
</svg>
