<?xml version="1.0" encoding="UTF-8"?>
<!--
  - Copyright (C) 2023 Matis Byar. - All Rights Reserved
  -
  - Unauthorized copying or redistribution of this file, in source or binary forms, via any medium,
  - is strictly prohibited.
  -
  - For inquiries or licensing options, please contact:
  - matis@byar.fr
  -->

<!--Generator: Apple Native CoreSVG 175.5-->
<!DOCTYPE svg
PUBLIC "-//W3C//DTD SVG 1.1//EN"
       "http://www.w3.org/Graphics/SVG/1.1/DTD/svg11.dtd">
<svg version="1.1" xmlns="http://www.w3.org/2000/svg" xmlns:xlink="http://www.w3.org/1999/xlink" width="44.9463" height="44.9951">
 <g>
  <rect height="44.9951" opacity="0" width="44.9463" x="0" y="0"/>
  <path d="M7.66602 44.9951L37.2803 44.9951C42.4072 44.9951 44.9463 42.4561 44.9463 37.4268L44.9463 7.61719C44.9463 2.58789 42.4072 0.0488281 37.2803 0.0488281L7.66602 0.0488281C2.56348 0.0488281 0 2.56348 0 7.61719L0 37.4268C0 42.4805 2.56348 44.9951 7.66602 44.9951Z" fill="#59adc4" fill-opacity="0.18"/>
  <path d="M9.22852 24.585C7.03125 24.585 6.78711 22.2168 8.39844 21.46L32.1777 10.1562C34.1553 9.22852 35.8154 10.9131 34.9121 12.8662L23.7305 36.6699C22.9736 38.3057 20.6055 38.0859 20.6055 35.8154L20.5811 25.415C20.5811 24.9268 20.2637 24.585 19.7998 24.585Z" fill="#59adc4"/>
 </g>
</svg>
