<?xml version="1.0" encoding="UTF-8"?>
<!--Generator: Apple Native CoreSVG 175.5-->
<!DOCTYPE svg
PUBLIC "-//W3C//DTD SVG 1.1//EN"
       "http://www.w3.org/Graphics/SVG/1.1/DTD/svg11.dtd">
<svg version="1.1" xmlns="http://www.w3.org/2000/svg" xmlns:xlink="http://www.w3.org/1999/xlink" width="49.8047" height="49.8291">
 <g>
  <rect height="49.8291" opacity="0" width="49.8047" x="0" y="0"/>
  <path d="M24.9023 49.8047C38.5254 49.8047 49.8047 38.501 49.8047 24.9023C49.8047 11.2793 38.501 0 24.8779 0C11.2793 0 0 11.2793 0 24.9023C0 38.501 11.3037 49.8047 24.9023 49.8047ZM24.9023 45.6543C13.3789 45.6543 4.1748 36.4258 4.1748 24.9023C4.1748 13.3789 13.3545 4.15039 24.8779 4.15039C36.4014 4.15039 45.6543 13.3789 45.6543 24.9023C45.6543 36.4258 36.4258 45.6543 24.9023 45.6543Z" fill="#59adc4" fill-opacity="0.5"/>
  <path d="M11.6211 35.4492C11.6211 36.4014 12.1338 36.9385 13.0615 36.9385C13.4033 36.9385 13.7207 36.8164 14.1357 36.5967L19.4824 33.6914L19.4824 12.6221C19.2627 12.7197 19.0186 12.8418 18.75 12.9883L12.7197 16.4307C11.9141 16.8945 11.6211 17.4316 11.6211 18.335ZM21.2158 33.4473L27.6367 37.0605C27.832 37.1826 28.0518 37.2559 28.2227 37.3047L28.2227 16.5283L21.9482 12.6953C21.7041 12.5488 21.4844 12.4512 21.2158 12.4023ZM29.9561 37.2559C30.0781 37.2314 30.2002 37.1826 30.3467 37.1094L36.9629 33.3496C37.7686 32.8857 38.0859 32.3486 38.0859 31.4697L38.0859 14.2822C38.0859 13.3545 37.5488 12.8418 36.6455 12.8418C36.3037 12.8418 35.9863 12.9639 35.5713 13.1836L29.9561 16.2842Z" fill="#59adc4"/>
 </g>
</svg>
