<?xml version="1.0" encoding="UTF-8"?>
<!--
  - Copyright (C) 2023 Matis Byar. - All Rights Reserved
  -
  - Unauthorized copying or redistribution of this file, in source or binary forms, via any medium,
  - is strictly prohibited.
  -
  - For inquiries or licensing options, please contact:
  - matis@byar.fr
  -->

<!--Generator: Apple Native CoreSVG 175.5-->
<!DOCTYPE svg
PUBLIC "-//W3C//DTD SVG 1.1//EN"
       "http://www.w3.org/Graphics/SVG/1.1/DTD/svg11.dtd">
<svg version="1.1" xmlns="http://www.w3.org/2000/svg" xmlns:xlink="http://www.w3.org/1999/xlink" width="49.8047" height="49.8291">
 <g>
  <rect height="49.8291" opacity="0" width="49.8047" x="0" y="0"/>
  <path d="M24.9023 49.8047C38.5254 49.8047 49.8047 38.501 49.8047 24.9023C49.8047 11.2793 38.501 0 24.8779 0C11.2793 0 0 11.2793 0 24.9023C0 38.501 11.3037 49.8047 24.9023 49.8047ZM24.9023 45.6543C13.3789 45.6543 4.1748 36.4258 4.1748 24.9023C4.1748 13.3789 13.3545 4.15039 24.8779 4.15039C36.4014 4.15039 45.6543 13.3789 45.6543 24.9023C45.6543 36.4258 36.4258 45.6543 24.9023 45.6543Z" fill="#59adc4" fill-opacity="0.5"/>
  <path d="M35.7666 26.0254C35.7666 20.0195 30.835 15.3076 25.3418 15.3076C25.1221 15.3076 24.8535 15.3564 24.6826 15.3564L26.416 13.5986C26.6602 13.3301 26.8311 12.915 26.8311 12.5C26.8311 11.6211 26.1719 10.9375 25.293 10.9375C24.8535 10.9375 24.4629 11.1328 24.1699 11.4258L19.4824 16.1865C18.9209 16.7725 18.8965 17.8711 19.4824 18.457L24.2188 23.1934C24.4873 23.4375 24.9023 23.6328 25.293 23.6328C26.1719 23.6328 26.8311 22.9736 26.8311 22.1191C26.8311 21.6553 26.6602 21.2891 26.3672 20.9717L23.999 18.6523C24.2432 18.6035 24.5605 18.5791 24.8779 18.5791C29.0771 18.5791 32.3975 21.9238 32.3975 26.0986C32.3975 30.2979 29.0771 33.6426 24.8779 33.6426C20.7031 33.6426 17.3584 30.2734 17.3584 26.0986C17.3584 25.1953 16.6016 24.4385 15.6738 24.4385C14.7705 24.4385 13.9893 25.1953 13.9893 26.0986C13.9893 32.1289 18.8477 37.0117 24.8779 37.0117C30.9082 37.0117 35.7666 32.1289 35.7666 26.0254Z" fill="#59adc4"/>
 </g>
</svg>
