<?xml version="1.0" encoding="UTF-8"?>
<!--Generator: Apple Native CoreSVG 175.5-->
<!DOCTYPE svg
PUBLIC "-//W3C//DTD SVG 1.1//EN"
       "http://www.w3.org/Graphics/SVG/1.1/DTD/svg11.dtd">
<svg version="1.1" xmlns="http://www.w3.org/2000/svg" xmlns:xlink="http://www.w3.org/1999/xlink" width="66.3818" height="70.7275">
 <g>
  <rect height="70.7275" opacity="0" width="66.3818" x="0" y="0"/>
  <path d="M33.1787 43.75C35.2783 43.7744 37.3535 43.2373 39.9414 42.0654L63.9893 31.0791C65.5762 30.3467 66.3818 28.9307 66.3818 27.4658C66.3818 26.0254 65.5762 24.6094 63.9893 23.877L39.9414 12.8906C37.3535 11.7188 35.2783 11.1816 33.1787 11.2061C31.1035 11.1816 29.0283 11.7188 26.416 12.8906L2.39258 23.877C0.805664 24.6094 0 26.0254 0 27.4658C0 28.9307 0.805664 30.3467 2.39258 31.0791L26.416 42.0654C29.0283 43.2373 31.1035 43.7744 33.1787 43.75ZM33.1787 39.8926C31.5674 39.8926 29.9805 39.4775 27.9053 38.5254L5.41992 28.2959C4.98047 28.1006 4.78516 27.8076 4.78516 27.4658C4.78516 27.1484 4.98047 26.8555 5.41992 26.6602L27.9053 16.4307C29.9805 15.4785 31.5674 15.0635 33.1787 15.0635C34.8145 15.0635 36.377 15.4785 38.4766 16.4307L60.9619 26.6602C61.377 26.8555 61.5967 27.1484 61.5967 27.4658C61.5967 27.8076 61.377 28.1006 60.9619 28.2959L38.4766 38.5254C36.377 39.4775 34.8145 39.8926 33.1787 39.8926ZM9.52148 45.8252C9.52148 53.125 18.7988 59.3018 33.1787 59.3018C47.583 59.3018 56.8604 53.125 56.8604 45.8252L56.8604 32.9346L52.9297 32.9346L52.9297 45.8252C52.9297 50.9277 45.2148 55.6152 33.1787 55.6152C21.167 55.6152 13.4521 50.9277 13.4521 45.8252L13.4521 32.9346L9.52148 32.9346ZM33.2764 30.249C35.9131 30.249 38.4521 29.0527 38.4521 27.4658C38.4521 25.9277 35.9131 24.7559 33.2764 24.7559C30.6641 24.7559 28.0762 25.9277 28.0762 27.4658C28.0762 29.0527 30.6641 30.249 33.2764 30.249ZM18.4326 36.6943L32.9102 29.0283L31.5674 26.5137L15.2588 35.0098ZM15.2588 60.6445L18.4326 60.6445L18.4326 36.6943L15.2588 35.1318ZM13.3301 61.1328L13.3301 67.5537C13.3301 69.4824 14.5752 70.7275 16.5039 70.7275L17.1631 70.7275C19.0918 70.7275 20.3369 69.4824 20.3369 67.5537L20.3369 61.1328C20.3369 59.2041 19.0918 57.959 17.1631 57.959L16.5039 57.959C14.5752 57.959 13.3301 59.2041 13.3301 61.1328Z" fill="#59adc4"/>
 </g>
</svg>
